<?xml version="1.0" encoding="iso-8859-1"?>
<!-- Generator: Adobe Illustrator 19.0.0, SVG Export Plug-In . SVG Version: 6.00 Build 0)  -->
<svg version="1.1" id="Layer_1" xmlns="http://www.w3.org/2000/svg" xmlns:xlink="http://www.w3.org/1999/xlink" x="0px" y="0px"
	 viewBox="0 0 460 460" style="enable-background:new 0 0 460 460;" xml:space="preserve">
<g id="XMLID_1711_">
	<path id="XMLID_933_" style="fill:#70D42E;" d="M230,460L230,460c-18.38,0-34.599-11.652-39.95-28.7l-84.334-268.665
		C80.315,81.714,142.76,0,230,0l0,0c87.24,0,149.685,81.714,124.284,162.634L269.95,431.3C264.599,448.348,248.38,460,230,460z"/>
	<path id="XMLID_932_" style="fill:#7EBC28;" d="M354.284,162.634L269.95,431.3C264.599,448.348,248.38,460,230,460l0,0V0l0,0
		C317.24,0,379.685,81.714,354.284,162.634z"/>
	<path id="XMLID_931_" style="fill:#F2F2F2;" d="M290,130c0,33.137-26.863,60-60,60s-60-26.863-60-60s26.863-60,60-60
		S290,96.863,290,130z"/>
	<path id="XMLID_930_" style="fill:#E0E0E0;" d="M230,190V70c33.137,0,60,26.863,60,60S263.137,190,230,190z"/>
</g>
<g>
</g>
<g>
</g>
<g>
</g>
<g>
</g>
<g>
</g>
<g>
</g>
<g>
</g>
<g>
</g>
<g>
</g>
<g>
</g>
<g>
</g>
<g>
</g>
<g>
</g>
<g>
</g>
<g>
</g>
</svg>
