<?xml version="1.0" encoding="iso-8859-1"?>
<!-- Generator: Adobe Illustrator 19.0.0, SVG Export Plug-In . SVG Version: 6.00 Build 0)  -->
<svg version="1.1" id="Layer_1" xmlns="http://www.w3.org/2000/svg" xmlns:xlink="http://www.w3.org/1999/xlink" x="0px" y="0px"
	 viewBox="0 0 512 512" style="enable-background:new 0 0 512 512;" xml:space="preserve">
<rect x="32.001" y="351.998" style="fill:#ED7149;" width="360.002" height="120.001"/>
<rect x="32.001" y="447.999" style="fill:#CBBBA0;" width="360.002" height="24"/>
<rect x="72" y="432.002" style="fill:#FFFFFF;" width="104.004" height="39.997"/>
<polygon style="fill:#CBBBA0;" points="496.001,472 472.001,200 376.001,200 362.589,352.005 392,352.001 392,472 "/>
<g>
	<rect x="391.995" y="447.999" style="fill:#F9B233;" width="104.004" height="24"/>
	<rect x="375.999" y="231.998" style="fill:#F9B233;" width="96.001" height="24"/>
</g>
<rect x="375.999" y="200.005" style="fill:#FFFFFF;" width="96.001" height="32.001"/>
<polyline style="fill:#CBBBA0;" points="80.001,352.001 104.001,40 296.001,40 328,352.001 "/>
<rect x="104.004" y="39.997" style="fill:#FFFFFF;" width="192.001" height="39.997"/>
<rect x="104.004" y="80.004" style="fill:#F9B233;" width="192.001" height="24"/>
<g>
	<rect x="144.001" y="96.137" style="fill:#1D1D1B;" width="111.997" height="15.734"/>
	<rect x="64.133" y="375.999" style="fill:#1D1D1B;" width="15.734" height="32.001"/>
</g>
<rect x="104.13" y="375.999" style="fill:#FFFFFF;" width="15.734" height="32.001"/>
<g>
	<rect x="144.137" y="375.999" style="fill:#1D1D1B;" width="15.734" height="32.001"/>
	<rect x="184.134" y="375.999" style="fill:#1D1D1B;" width="15.734" height="32.001"/>
</g>
<g>
	<rect x="224.131" y="375.999" style="fill:#FFFFFF;" width="15.734" height="32.001"/>
	<rect x="264.138" y="375.999" style="fill:#FFFFFF;" width="15.734" height="32.001"/>
	<rect x="304.135" y="375.999" style="fill:#FFFFFF;" width="15.734" height="32.001"/>
</g>
<g>
	<rect x="344.131" y="375.999" style="fill:#1D1D1B;" width="15.734" height="32.001"/>
	<rect x="399.999" y="248.131" style="fill:#1D1D1B;" width="48" height="15.734"/>
	<path style="fill:#1D1D1B;" d="M503.204,464.133l-24-272.001H368.797l-13.412,152h-20.284l-31.999-312H96.715L72.716,344.133
		H24.133v120H0v15.734h512v-15.734H503.204z M383.204,207.868h81.593l1.435,16.266h-84.463L383.204,207.868z M111.286,47.867
		h177.613l2.489,24.266H109.419L111.286,47.867z M106.362,111.867H128V96.133h-20.427l0.636-8.266h184.793l0.848,8.266H272v15.734
		h23.462l23.823,232.266H88.495L106.362,111.867z M79.868,464.133v-24.266h88.266v24.266H79.868z M183.867,464.133v-40H64.133v40
		H39.868v-8.266h16.133v-15.734H39.868v-80.266h344.265v80.266H192v15.734h192.133v8.266H183.867z M371.181,344.133l7.083-80.266
		H392v-15.734h-12.349l0.729-8.266h87.241l0.729,8.266H456v15.734h13.737l15.553,176.266H408v15.734h78.679l0.729,8.266h-87.542
		v-120H371.181z"/>
</g>
<g>
</g>
<g>
</g>
<g>
</g>
<g>
</g>
<g>
</g>
<g>
</g>
<g>
</g>
<g>
</g>
<g>
</g>
<g>
</g>
<g>
</g>
<g>
</g>
<g>
</g>
<g>
</g>
<g>
</g>
</svg>
